<svg width="90" height="90" viewBox="0 0 90 90" fill="none" xmlns="http://www.w3.org/2000/svg">
<path fill-rule="evenodd" clip-rule="evenodd" d="M89.8125 35.2704V8.5782C89.8125 6.40308 86.5018 0.368547 80.9138 0.227142C68.262 -0.0930116 32.0171 0.0189734 32.0171 0.0189734C32.0171 0.0189734 28.2001 -0.443646 20.9527 4.27505C18.1223 7.42951 17.9078 10.162 17.7707 11.9068C17.6706 13.1814 17.6119 13.929 16.605 13.929C13.3025 13.929 7.57316 15.5728 4.49555 21.3919C2.716 24.7566 3.01897 30.1721 3.25504 34.3918C3.43948 37.6886 3.58308 40.2555 2.66078 40.5442C0.000359404 41.3769 0.000358346 42.7648 0.000358346 42.7648V57.3834L0.000175795 57.4921C-0.00259984 58.5865 -0.00429401 59.2544 2.66078 59.8816C3.88014 60.1685 3.70567 64.1599 3.508 68.6821C3.32801 72.7998 3.12879 77.3575 3.94512 79.9592C6.23858 87.2685 14.4033 89.9517 14.4033 89.9517C14.4033 89.9517 24.9234 89.6101 31.6502 89.9517C42.3852 90.497 42.0674 86.3432 41.6984 81.5193L41.6984 81.5192C41.6291 80.613 41.558 79.6831 41.558 78.7564C41.558 63.49 58.4305 39.2489 79.813 39.2489C90.8216 39.2489 89.8125 35.2704 89.8125 35.2704ZM78.9926 15.0424H29.8154C26.8798 15.0424 26.9715 10.7421 31.1308 10.7421C45.8086 10.7421 50.9542 10.7908 55.9623 10.8383C60.7097 10.8833 65.3334 10.9271 77.8359 10.9271C81.709 10.9271 81.8924 15.0424 78.9926 15.0424ZM48.0282 24.3989C57.3394 24.3757 66.6505 24.3526 78.9926 24.3526C81.1944 24.3526 80.483 27.1312 80.0018 28.1461C79.8314 28.5052 78.5372 28.7643 76.4721 29.1776C66.3013 31.2131 37.4313 36.991 32.0171 76.9059C31.9918 77.0927 31.9953 77.3254 31.9991 77.5732C32.0094 78.2521 32.0213 79.0439 31.4463 79.3115C27.2467 80.1443 15.8711 79.3447 15.8711 79.3447C15.8711 79.3447 13.8051 78.697 13.8051 76.3839V62.0097C13.8051 59.604 14.4033 59.8816 14.4033 59.8816C14.4033 59.8816 21.3836 60.1638 26.1899 59.8816C30.9163 59.604 33.2097 55.348 33.3932 54.2377C33.5767 53.1274 33.2525 47.8707 33.0324 45.8729C32.8122 43.8751 30.5652 41.1873 27.7054 40.545C26.9002 40.3642 23.6768 40.4695 20.5623 40.5713H20.5622H20.5622H20.5621H20.562C17.2894 40.6782 14.1371 40.7812 14.0364 40.5442C13.6694 39.6807 14.0364 27.3134 14.0364 27.3134C14.0364 27.3134 13.7612 24.4451 17.0637 24.4451C29.4051 24.4451 38.7159 24.422 48.0265 24.3989L48.0282 24.3989ZM85.5925 44.1526C64.4009 42.181 43.7597 59.8816 46.884 85.3256C47.6294 91.3958 56.5705 89.6186 56.2414 85.3256C55.227 72.0947 62.2022 54.9929 81.556 53.3125C93.0233 52.3168 91.1886 44.6733 85.5925 44.1526ZM62.5595 85.8537C59.8768 80.8844 63.8505 56.2528 86.3033 59.1085C92.3812 59.8816 89.9082 67.8148 85.5925 68.0894C70.651 69.0398 70.9133 77.764 71.0819 83.3711L71.0819 83.3715C71.0986 83.9266 71.1143 84.4511 71.1143 84.9346C71.1143 89.119 65.7761 91.8118 62.5595 85.8537ZM28.9898 50.3517C28.9898 53.4177 26.5254 55.9031 23.4855 55.9031C20.4455 55.9031 17.9811 53.4177 17.9811 50.3517C17.9811 47.2858 20.4455 44.8003 23.4855 44.8003C26.5254 44.8003 28.9898 47.2858 28.9898 50.3517ZM82.5651 86.0658C85.8078 86.0658 88.4364 83.4146 88.4364 80.1443C88.4364 76.8739 85.8078 74.2228 82.5651 74.2228C79.3225 74.2228 76.6939 76.8739 76.6939 80.1443C76.6939 83.4146 79.3225 86.0658 82.5651 86.0658Z" fill="#D00000"/>
</svg>
